<?xml version="1.0" encoding="iso-8859-1"?>
<!-- Generator: Adobe Illustrator 19.0.0, SVG Export Plug-In . SVG Version: 6.00 Build 0)  -->
<svg version="1.1" id="Capa_1" xmlns="http://www.w3.org/2000/svg" xmlns:xlink="http://www.w3.org/1999/xlink" x="0px" y="0px"
	 viewBox="0 0 463 463" style="enable-background:new 0 0 463 463;" xml:space="preserve">
	<defs>
		<linearGradient id="gradient">
			<stop offset="5%" stop-color="#ff6c23" />
			<stop offset="95%" stop-color="#ffb92a" />
    	</linearGradient>
	</defs>
<g>
	<path fill="url(#gradient)" d="M375.5,0h-224c-0.086,0-0.17,0.01-0.256,0.013c-0.084,0.003-0.166,0.007-0.25,0.012c-0.32,0.021-0.636,0.057-0.944,0.117
		c-0.006,0.001-0.011,0.001-0.017,0.003c-0.333,0.066-0.655,0.159-0.971,0.267c-0.057,0.02-0.114,0.041-0.17,0.063
		c-0.297,0.11-0.587,0.235-0.865,0.38c-0.018,0.01-0.037,0.017-0.055,0.027c-0.292,0.156-0.569,0.334-0.836,0.526
		c-0.061,0.043-0.12,0.089-0.18,0.134c-0.265,0.202-0.521,0.416-0.756,0.65c-0.001,0.001-0.003,0.002-0.004,0.003l-80,80
		c-0.001,0.001-0.002,0.002-0.003,0.003c-0.235,0.236-0.449,0.492-0.651,0.757c-0.045,0.06-0.09,0.119-0.134,0.179
		c-0.192,0.267-0.37,0.544-0.526,0.835c-0.01,0.02-0.019,0.04-0.029,0.06c-0.144,0.276-0.268,0.563-0.378,0.858
		c-0.022,0.059-0.044,0.117-0.065,0.177c-0.108,0.313-0.2,0.633-0.266,0.964c-0.002,0.012-0.003,0.025-0.006,0.037
		c-0.058,0.301-0.093,0.609-0.115,0.921c-0.006,0.088-0.01,0.175-0.013,0.263C64.01,87.334,64,87.416,64,87.5v352
		c0,12.958,10.542,23.5,23.5,23.5h288c12.958,0,23.5-10.542,23.5-23.5v-416C399,10.542,388.458,0,375.5,0z M144,25.606V71.5
		c0,4.687-3.813,8.5-8.5,8.5H89.606L144,25.606z M384,439.5c0,4.687-3.813,8.5-8.5,8.5h-288c-4.687,0-8.5-3.813-8.5-8.5V95h56.5
		c12.958,0,23.5-10.542,23.5-23.5V15h216.5c4.687,0,8.5,3.813,8.5,8.5V439.5z"/>
	<path fill="url(#gradient)" d="M135.5,127h192c4.142,0,7.5-3.357,7.5-7.5s-3.358-7.5-7.5-7.5h-192c-4.142,0-7.5,3.357-7.5,7.5S131.358,127,135.5,127z"/>
	<path fill="url(#gradient)" d="M135.5,167h192c4.142,0,7.5-3.357,7.5-7.5s-3.358-7.5-7.5-7.5h-192c-4.142,0-7.5,3.357-7.5,7.5S131.358,167,135.5,167z"/>
	<path fill="url(#gradient)" d="M135.5,207h192c4.142,0,7.5-3.357,7.5-7.5s-3.358-7.5-7.5-7.5h-192c-4.142,0-7.5,3.357-7.5,7.5S131.358,207,135.5,207z"/>
	<path fill="url(#gradient)" d="M135.5,247h192c4.142,0,7.5-3.357,7.5-7.5s-3.358-7.5-7.5-7.5h-192c-4.142,0-7.5,3.357-7.5,7.5S131.358,247,135.5,247z"/>
	<path fill="url(#gradient)" d="M135.5,287h192c4.142,0,7.5-3.357,7.5-7.5s-3.358-7.5-7.5-7.5h-192c-4.142,0-7.5,3.357-7.5,7.5S131.358,287,135.5,287z"/>
	<path fill="url(#gradient)" d="M231.5,328h-96c-4.142,0-7.5,3.357-7.5,7.5s3.358,7.5,7.5,7.5h96c4.142,0,7.5-3.357,7.5-7.5S235.642,328,231.5,328z"/>
	<path fill="url(#gradient)" d="M231.5,368h-96c-4.142,0-7.5,3.357-7.5,7.5s3.358,7.5,7.5,7.5h96c4.142,0,7.5-3.357,7.5-7.5S235.642,368,231.5,368z"/>
	<path fill="url(#gradient)" d="M299.5,344c-6.341,0-11.5,5.159-11.5,11.5s5.159,11.5,11.5,11.5s11.5-5.159,11.5-11.5S305.841,344,299.5,344z"/>
	<path fill="url(#gradient)" d="M299.5,312c-23.986,0-43.5,19.514-43.5,43.5s19.514,43.5,43.5,43.5s43.5-19.514,43.5-43.5S323.486,312,299.5,312z
		 M299.5,384c-15.715,0-28.5-12.785-28.5-28.5s12.785-28.5,28.5-28.5s28.5,12.785,28.5,28.5S315.215,384,299.5,384z"/>
</g>
</svg>
