<?xml version="1.0" encoding="iso-8859-1"?>
<!-- Generator: Adobe Illustrator 19.0.0, SVG Export Plug-In . SVG Version: 6.00 Build 0)  -->
<svg version="1.1" id="Layer_1" xmlns="http://www.w3.org/2000/svg" xmlns:xlink="http://www.w3.org/1999/xlink" x="0px" y="0px"
	 viewBox="0 0 472.615 472.615" style="enable-background:new 0 0 472.615 472.615;" xml:space="preserve">
	<defs>
		<linearGradient id="gradient">
		  <stop offset="5%" stop-color="#FFC338" />
			<stop offset="95%" stop-color="#FFEA68" />
		</linearGradient>
  	</defs>
<g>
	<g fill="url(#gradient)">
		<path d="M0,393.846v33.575l45.194,45.194h382.227l45.194-45.194v-33.575H0z M206.769,443.044h-19.692v-19.692h19.692V443.044z
			 M246.154,443.044h-19.692v-19.692h19.692V443.044z M285.538,443.044h-19.692v-19.692h19.692V443.044z"/>
	</g>
</g>
<g>
	<g fill="url(#gradient)">
		<path d="M375.25,59.077c13.789,22.86,22.207,49.305,23.216,77.651c15.77,13.942,24.919,33.913,24.919,55.268
			c0,18.77-7.081,36.587-19.692,50.183v72.894h-98.548c-9.12,12.154-23.596,19.692-39.298,19.692h-29.538
			c-27.144,0-49.231-22.086-49.231-49.231c0-7.065,1.551-13.757,4.244-19.836l-33.782,0.144h-34.462
			c-40.721,0-73.846-33.124-73.846-73.846c0-21.355,9.149-41.326,24.918-55.268c1.01-28.346,9.428-54.791,23.217-77.651H19.692
			v315.077h433.231V59.077H375.25z"/>
	</g>
</g>
<g>
	<g fill="url(#gradient)">
		<path d="M378.88,146.511v-3.938C378.88,63.902,314.88,0,236.308,0S93.736,63.902,93.736,142.572v3.938
			C78.868,156.16,68.923,172.898,68.923,192c0,29.833,24.32,54.154,54.154,54.154h14.769V137.846h-14.769
			c-3.249,0-6.498,0.294-9.551,0.886c1.969-66.068,56.32-119.04,122.782-119.04s120.812,52.972,122.782,119.04
			c-3.052-0.592-6.302-0.886-9.551-0.886h-14.769v108.308h14.769c5.12,0,10.043-0.688,14.769-2.069v31.607h-70.695
			C289.575,264.172,278.646,256,265.846,256h-29.538c-16.246,0-29.538,13.194-29.538,29.538c0,16.246,13.292,29.538,29.538,29.538
			h29.538c12.8,0,23.729-8.271,27.766-19.692H384v-61.637c12.012-9.945,19.692-25.009,19.692-41.748
			C403.692,172.898,393.748,156.16,378.88,146.511z"/>
	</g>
</g>
<g>
	<g fill="url(#gradient)">
		<polygon points="167.385,98.432 167.385,196.894 196.941,196.894 196.94,226.432 250.016,196.894 305.248,196.894 305.248,98.432 
					"/>
	</g>
</g>
</svg>
