<?xml version="1.0" encoding="iso-8859-1"?>
<!-- Generator: Adobe Illustrator 18.0.0, SVG Export Plug-In . SVG Version: 6.00 Build 0)  -->
<svg version="1.1" id="Capa_1" xmlns="http://www.w3.org/2000/svg" xmlns:xlink="http://www.w3.org/1999/xlink" x="0px" y="0px"
	 viewBox="0 0 408.421 408.421" style="enable-background:new 0 0 408.421 408.421;" xml:space="preserve">
	<defs>
        <linearGradient id="gradient">
            <stop offset="5%" stop-color="#ff6c23" />
			<stop offset="95%" stop-color="#ffb92a" />
        </linearGradient>
    </defs>
<g>
	<path fill="url(#gradient)" d="M384.785,188.479L384.785,188.479l-16.921-11.711l-17.06-74.37c-5.062-22.068-24.41-37.48-47.051-37.48h-42.043V45.11
		c0-11.594-9.433-21.027-21.027-21.027h-72.945c-11.595,0-21.027,9.433-21.027,21.027v19.807h-42.043
		c-22.642,0-41.989,15.413-47.052,37.48l-17.059,74.37l-16.922,11.712C8.836,198.721,0,215.581,0,233.579v80.813
		c0,10.772,8.764,19.536,19.536,19.536h2.451v33.216c0,9.481,7.713,17.194,17.194,17.194h37.146c9.481,0,17.194-7.713,17.194-17.194
		v-33.216h53.772c1.304,14.904,13.845,26.637,29.083,26.637h70.591c15.237,0,27.778-11.732,29.082-26.637h38.85v33.216
		c0,9.481,7.713,17.194,17.194,17.194h37.146c9.481,0,17.194-7.713,17.194-17.194v-33.216h2.45c10.772,0,19.536-8.764,19.536-19.536
		v-80.813C408.421,215.581,399.585,198.721,384.785,188.479z M161.711,45.11c0-3.323,2.704-6.027,6.027-6.027h72.945
		c3.323,0,6.027,2.704,6.027,6.027v19.807h-85V45.11z M32.172,200.813l19.313-13.367c1.539-1.065,2.624-2.667,3.043-4.49
		l17.709-77.205c3.488-15.211,16.824-25.834,32.431-25.834h199.086c15.605,0,28.941,10.623,32.43,25.834l17.71,77.205
		c0.419,1.824,1.504,3.426,3.042,4.49l19.313,13.367c0,0,0,0,0.001,0c10.752,7.441,17.171,19.69,17.171,32.766v51.989h-122.21
		v-51.845c0-17.998-14.643-32.641-32.641-32.641h-68.719c-17.998,0-32.641,14.643-32.641,32.641v51.845H15v-51.989
		C15,220.503,21.419,208.254,32.172,200.813z M242.303,285.568v-69.08c7.939,1.718,13.908,8.789,13.908,17.235v51.845H242.303z
		 M166.118,285.568h-13.907v-51.845c0-8.445,5.968-15.516,13.907-17.235V285.568z M181.118,216.082h15.593v69.486h-15.593V216.082z
		 M211.711,216.082h15.592v69.486h-15.592V216.082z M78.522,367.144c0,1.21-0.984,2.194-2.194,2.194H39.182
		c-1.21,0-2.194-0.984-2.194-2.194v-33.216h41.535V367.144z M246.968,345.565h-70.591c-6.954,0-12.746-5.028-13.958-11.637h98.506
		C259.713,340.537,253.922,345.565,246.968,345.565z M371.435,367.144c0,1.21-0.984,2.194-2.194,2.194h-37.146
		c-1.21,0-2.194-0.984-2.194-2.194v-33.216h41.535V367.144z M388.885,318.928H19.536c-2.501,0-4.536-2.035-4.536-4.536v-13.824
		h378.421v13.824C393.421,316.894,391.386,318.928,388.885,318.928z"/>
	<path fill="url(#gradient)" d="M69.789,188.775H338.63c2.284,0,4.443-1.041,5.866-2.827c1.423-1.786,1.954-4.124,1.444-6.35l-16.581-72.282
		c-2.759-12.012-13.29-20.401-25.61-20.401H104.67c-12.32,0-22.852,8.389-25.611,20.403l-16.58,72.28
		c-0.51,2.226,0.021,4.563,1.444,6.35C65.346,187.735,67.505,188.775,69.789,188.775z M93.679,110.674
		c1.185-5.157,5.704-8.759,10.991-8.759h199.079c5.287,0,9.807,3.602,10.99,8.757l14.476,63.103H79.204L93.679,110.674z"/>
	<path fill="#ffb92a" d="M59.581,278.405c16.817,0,30.5-13.682,30.5-30.5s-13.683-30.5-30.5-30.5s-30.5,13.682-30.5,30.5
		S42.764,278.405,59.581,278.405z M59.581,232.405c8.547,0,15.5,6.953,15.5,15.5s-6.953,15.5-15.5,15.5s-15.5-6.953-15.5-15.5
		S51.034,232.405,59.581,232.405z"/>
	<path fill="#ffb92a" d="M318.338,247.905c0,16.818,13.683,30.5,30.5,30.5s30.5-13.682,30.5-30.5s-13.683-30.5-30.5-30.5
		S318.338,231.087,318.338,247.905z M348.838,232.405c8.547,0,15.5,6.953,15.5,15.5s-6.953,15.5-15.5,15.5s-15.5-6.953-15.5-15.5
		S340.291,232.405,348.838,232.405z"/>
	<path fill="url(#gradient)" d="M103.374,263.349c-3.133-2.062-7.465-1.497-9.89,1.389c-2.497,2.972-2.273,7.377,0.419,10.151
		c2.952,2.864,7.659,2.871,10.61,0C107.747,271.559,107.298,265.939,103.374,263.349
		C102.964,263.079,103.783,263.619,103.374,263.349z"/>
	<path fill="url(#gradient)" d="M316.134,266.709c-1.194-2.821-4.028-4.704-7.109-4.625c-3.055,0.078-5.798,2.061-6.854,4.92
		c-2.337,6.327,4.615,12.344,10.57,9.189C316.111,274.409,317.582,270.226,316.134,266.709
		C315.943,266.26,316.323,267.169,316.134,266.709z"/>
</g>
</svg>
